<?xml version="1.0" encoding="utf-8"?>
<!-- Generator: Adobe Illustrator 27.0.0, SVG Export Plug-In . SVG Version: 6.00 Build 0)  -->
<svg version="1.1" id="Capa_1" xmlns="http://www.w3.org/2000/svg" xmlns:xlink="http://www.w3.org/1999/xlink" x="0px" y="0px"
	 viewBox="0 0 2615.96 501.88" style="enable-background:new 0 0 2615.96 501.88;" xml:space="preserve">
<style type="text/css">
	.st0{fill:#534B44;}
</style>
<g>
	<g>
		<g>
			<polygon class="st0" points="1298.51,356.82 1298.51,55.01 1416.22,55.01 1416.22,328.42 1545.05,328.42 1545.05,55.01 
				1662.76,55.01 1662.76,446.42 1388.23,446.42 			"/>
		</g>
	</g>
	<path class="st0" d="M2346.31,48.7c-113.22,0-204.06,91.01-204.06,202.26c0,111.37,90.84,202.24,204.06,202.24
		c113.22,0,204.06-90.87,204.06-202.24C2550.37,139.71,2459.53,48.7,2346.31,48.7z M2346.32,345.12c-49.32,0-85.6-38.67-85.6-94.16
		s36.28-94.17,85.6-94.17c49.33,0,85.6,38.67,85.6,94.17S2395.65,345.12,2346.32,345.12z"/>
	<path class="st0" d="M1943.65,345.12c-49.32,0-85.6-38.67-85.6-94.16s36.28-94.17,85.6-94.17c35.21,0,63.77,19.7,77.23,51.16
		l82.67-82.68c-37.3-46.59-94.91-76.57-159.9-76.57c-113.21,0-204.05,91.01-204.05,202.26c0,111.37,90.84,202.24,204.05,202.24
		c65.01,0,122.64-29.96,159.93-76.55l-82.69-82.7C2007.42,325.41,1978.86,345.12,1943.65,345.12z"/>
	<polygon class="st0" points="620.55,128.63 620.55,55.01 502.09,55.01 502.09,446.96 620.55,446.96 620.55,172.54 791.36,172.54 
		791.36,55.01 694,55.01 	"/>
	<path class="st0" d="M288.07,92.42V92.4c-27.57-27.17-62.35-43.71-100.21-43.71c-89.4,0-161.78,90.73-161.78,202.32
		c0,111.58,72.38,202.17,161.78,202.17c37.85,0,72.64-16.38,100.21-43.55v-0.07l37.43,37.4h94.84V55.01h-94.9L288.07,92.42z
		 M301.95,312.14c-15.58,21.17-37.52,33.01-66.65,33.01c-56.46,0-90.11-42.35-90.11-94.16c0-51.69,33.65-94.04,90.11-94.04
		c29.13,0,51.07,11.71,66.65,32.87V312.14z"/>
	<path class="st0" d="M1082.98,92.42V92.4c-27.57-27.17-62.35-43.71-100.21-43.71c-89.4,0-161.78,90.73-161.78,202.32
		c0,111.58,72.38,202.17,161.78,202.17c37.85,0,72.64-16.38,100.21-43.55v-0.07l37.44,37.4h94.83V55.01h-94.9L1082.98,92.42z
		 M1096.86,312.14c-15.58,21.17-37.52,33.01-66.65,33.01c-56.46,0-90.1-42.35-90.1-94.16c0-51.69,33.65-94.04,90.1-94.04
		c29.13,0,51.07,11.71,66.65,32.87V312.14z"/>
	<g>
		<g>
			<path class="st0" d="M2570.14,453.2c-10.9,0-19.77-8.87-19.77-19.76c0-10.89,8.87-19.76,19.77-19.76
				c10.89,0,19.74,8.86,19.74,19.76C2589.88,444.33,2581.03,453.2,2570.14,453.2z M2570.14,417.48c-8.8,0-15.96,7.16-15.96,15.95
				s7.16,15.95,15.96,15.95c8.78,0,15.93-7.16,15.93-15.95S2578.92,417.48,2570.14,417.48z"/>
			<path class="st0" d="M2561.88,444.18v-21.63h10.92c2.52,0,4.37,0.78,5.57,2.35c0.83,1.11,1.25,2.36,1.25,3.77
				c0,1.2-0.31,2.28-0.91,3.23c-0.59,0.92-1.41,1.57-2.44,1.92c1.02,0.44,1.71,0.95,2.03,1.5c0.48,0.79,0.7,2.11,0.7,3.98
				c0,1.71,0.06,2.76,0.14,3.18c0.09,0.58,0.37,0.95,0.84,1.12v0.58h-5c-0.33-1.08-0.49-2.55-0.49-4.37c0-1.62-0.19-2.68-0.51-3.16
				c-0.46-0.61-1.45-0.94-3.02-0.94h-4.67v8.47H2561.88z M2566.3,432.07h5.31c2.31,0,3.48-0.99,3.48-2.96
				c0-1.88-1.04-2.83-3.17-2.83h-5.62V432.07z"/>
		</g>
	</g>
</g>
</svg>
