<?xml version="1.0"?>
<svg xmlns="http://www.w3.org/2000/svg" xmlns:xlink="http://www.w3.org/1999/xlink" width="361.688" height="225.974" viewBox="0 0 361.688 225.974" enable-background="new 0 0 361.688 225.974">
<g>
	<path fill="#005A9C" d="M110.561,92.639c0,0-14.683-0.479-20.606-13.737c0,0-13.741,15.399-35.065,20.85l1.433,3.787v49.04
		l-4.041,4.029c0,0-16.103-11.852-17.525-26.059c-1.42-14.22,1.424-25.126,17.3-38.852c0,0,4.729-4.518,12.782-7.347v-1.662
		c-25.59,0-55.208,23.198-55.208,50.224c0,26.773,20.321,42.626,47.155,42.626c0,0,17.063,0.176,29.707-6.779v6.689
		c0,0.52-1.044,0.418-1.044,0.418c-3.663,0-6.62,2.428-6.62,5.42c0,2.994,2.958,5.424,6.62,5.424c3.661,0,6.615-2.43,6.615-5.424
		v-15.109c0.014,0,3.586-2.703,4.758-3.658c1.18-0.945,0.225-2.834-1.169-2.365c-1.435,0.479-3.573,1.42-3.573,1.42V98.803
		C92.081,98.803,104.408,99.973,110.561,92.639L110.561,92.639z M86.404,162.996c-21.326,2.365-27.011-2.363-27.011-2.363
		l17.535-14.924V94.528c0-2.367,9.476,3.545,9.476,3.545V162.996L86.404,162.996z"/>
	<path fill="#005A9C" d="M137.801,147.596c0,0,0-30.096,0-31.267c0-1.194,2.363-3.789,2.363-3.789
		c-8.757-0.94-22.735-7.811-22.735-7.811c-7.812,6.616-20.383,7.332-20.383,7.332c-0.225,1.424,1.903,4.016,1.903,4.016v30.812
		c0,0-0.946,0.944-3.071,3.786c-2.137,2.842-0.955,2.842-0.955,2.842c17.538,1.877,24.632,9.225,24.632,9.225
		c7.828-8.757,21.087-10.658,21.087-10.658C138.518,151.144,137.801,147.596,137.801,147.596L137.801,147.596z M123.583,149.961
		c-9.474-1.903-11.358-4.013-11.358-4.013v-31.995c0-0.706,11.358,4.023,11.358,4.023V149.961L123.583,149.961z"/>
	<path fill="#005A9C" d="M228.765,147.596c0,0,0-30.096,0-31.267c0-1.194,2.375-3.789,2.375-3.789
		c-8.764-0.94-22.746-7.811-22.746-7.811c-7.813,6.616-20.368,7.332-20.368,7.332c-0.24,1.424,1.896,4.016,1.896,4.016v30.812
		c0,0-0.94,0.944-3.082,3.786c-2.125,2.842-0.954,2.842-0.954,2.842c17.549,1.877,24.648,9.225,24.648,9.225
		c7.815-8.757,21.084-10.658,21.084-10.658C229.492,151.144,228.765,147.596,228.765,147.596L228.765,147.596z M214.563,149.961
		c-9.478-1.903-11.376-4.013-11.376-4.013v-31.995c0-0.706,11.376,4.023,11.376,4.023V149.961L214.563,149.961z"/>
	<path fill="#005A9C" d="M285.708,150.454c-0.012,0-0.051,0-0.076-0.015C285.632,150.439,285.105,151.221,285.708,150.454
		L285.708,150.454z"/>
	<path fill="#005A9C" d="M330.876,149.737c-3.322-0.482-4.746-4.517-4.746-4.517s0-28.891,0-30.083c0-1.18,0-6.15,0-6.15
		c-10.188-3.312-20.143-6.87-20.143-6.87c-9.473,5.674-19.652,8.754-19.652,8.754c-0.238,1.424,1.887,4.028,1.887,4.028v32.223
		c0,0,0.717-0.946-1.424,1.887c-0.537,0.73-0.879,1.171-1.094,1.447c10.166,1.244,21.375,12.291,21.375,12.291l8.156-8.757
		l9.221,8.757l10.906-12.307L330.876,149.737L330.876,149.737z M311.927,148.791c-4.275-3.319-10.189-6.191-10.189-6.191v-30.998
		c-2.922-1.775,10.189,4.003,10.189,4.003V148.791L311.927,148.791z"/>
	<path fill="#005A9C" d="M143.137,113.01l11.962-9.233c0,0,7.591,4.49,8.761,6.377c0.01,0,1.193,0.971,10.895-5.42l1.673-1.193
		c0,0,6.151,5.658,11.362,7.092c0,0-1.184,10.432-19.666,5.449c0,0-4.016-0.704-4.016,1.195c0,1.887,0,33.402,0,33.402h5.211
		c0,0-8.063,4.719-10.909,9.01c-2.828,4.25-2.629,3.057-2.629,3.057c0.01,0-0.92-5.198-11.11-11.121l-0.228-0.706h4.742v-31.756
		C149.185,119.164,147.158,113.248,143.137,113.01L143.137,113.01z"/>
	<path fill="#005A9C" d="M279.468,111.601c-5.008-2.025-13.273-8.545-13.273-8.545l-1.648,1.184
		c-9.725,6.391-12.572,6.631-12.572,6.631c-1.17-1.887-8.994-6.391-8.994-6.391l-10.654,8.063c4.033,0.215,5.688,6.873,5.688,6.873
		v31.729h-4.746l0.24,0.718c10.189,5.925,11.35,10.882,11.35,10.882s-0.451,1.424,2.391-2.832
		c2.855-4.252,10.908-8.993,10.908-8.993h-5.225c0,0,0-31.504,0-33.417l6.168-4.745l4.73,4.039v33.883h-2.844
		c0,0,10.568,9.956,11.033,12.067c0,0,9.813-11.35,11.008-11.35h-4.742v-35.314C278.289,116.082,280.65,112.064,279.468,111.601
		L279.468,111.601z"/>
	<path fill="#FFCB05" d="M125.483,83.33h109.776v-9.158H125.483V83.33L125.483,83.33z M133.535,82.086
		c-1.662,0-3.006-1.374-3.006-3.036c0-1.648,1.344-3.032,3.006-3.032c1.672,0,3.031,1.384,3.031,3.032
		C136.566,80.712,135.209,82.086,133.535,82.086L133.535,82.086z M156.759,82.086c-1.662,0-3.02-1.374-3.02-3.036
		c0-1.648,1.357-3.032,3.02-3.032s3.008,1.384,3.008,3.032C159.767,80.712,158.421,82.086,156.759,82.086L156.759,82.086z
		 M180.287,82.086c-1.661,0-3.02-1.374-3.02-3.036c0-1.648,1.36-3.032,3.02-3.032c1.662,0,3.023,1.384,3.023,3.032
		C183.311,80.712,181.949,82.086,180.287,82.086L180.287,82.086z M203.503,82.086c-1.663,0-3.006-1.374-3.006-3.036
		c0-1.648,1.343-3.032,3.006-3.032c1.671,0,3.018,1.384,3.018,3.032C206.521,80.712,205.174,82.086,203.503,82.086L203.503,82.086z
		 M227.191,82.086c-1.662,0-3.018-1.374-3.018-3.036c0-1.648,1.356-3.032,3.018-3.032c1.672,0,3.018,1.384,3.018,3.032
		C230.208,80.712,228.865,82.086,227.191,82.086L227.191,82.086z"/>
	<path fill="#FFCB05" d="M125.483,73.037h110c0,0,0.049-2.98,0.039-6.112h-110.04V73.037L125.483,73.037z"/>
	<path fill="#FFCB05" d="M125.483,65.866h110.028c0-0.717-0.016-1.408-0.027-2.051c-0.076-3.873,3.082-6.076,4.895-6.705
		c1.824-0.643,5.447-3.247,5.447-3.247c9.32-7.424,5.449-13.827,5.449-13.827s-3.16,7.122-13.902,6.012c0,0-0.779,4.416-5.838,5.524
		c0,0,2.645,2.805,1.811,5.888c0,0-0.111,2.958-4.377,2.352c0,0-2.01-1.758,0.943-4.842l-4.141-3.311l-4.011,3.061
		c0,0,2.703,1.434,1.295,4.981c0,0-1.477,1.343-2.012,1.419c-0.567,0.088-5.778-2.289-0.239-8.049l-6.241-5.299l-6.405,5.299
		c0,0,5.059,5.069,0.87,7.76c0,0-4.494,3.055-4.971-2.391c0,0-0.554-1.735,1.663-2.591l-6.241-4.038l-5.927,4.189
		c0,0,1.811,1.256,1.749,2.352c-0.074,1.12,0.39,3.02-3.482,3.485c0,0-4.182-0.398-2.997-4.729c1.185-4.354,5.524-4.893,7.021-5.295
		c0,0-4.024-6.795-15.313-8.845h-0.087c-11.286,2.049-15.312,8.845-15.312,8.845c1.498,0.404,5.838,0.941,7.022,5.295
		c1.19,4.33-3.001,4.729-3.001,4.729c-3.875-0.462-3.396-2.363-3.474-3.485c-0.086-1.095,1.737-2.351,1.737-2.351l-5.925-4.19
		l-6.242,4.038c2.216,0.855,1.66,2.591,1.66,2.591c-0.465,5.446-4.969,2.391-4.969,2.391c-4.191-2.691,0.867-7.759,0.867-7.759
		l-6.4-5.3l-6.241,5.3c5.535,5.759,0.328,8.139-0.225,8.048c-0.557-0.076-2.015-1.419-2.015-1.419
		c-1.424-3.548,1.296-4.981,1.296-4.981l-4.024-3.061l-4.14,3.311c2.967,3.084,0.941,4.842,0.941,4.842
		c-4.263,0.606-4.376-2.352-4.376-2.352c-0.832-3.083,1.812-5.888,1.812-5.888c-5.046-1.108-5.853-5.524-5.853-5.524
		c-10.731,1.109-13.888-6.012-13.888-6.012s-3.876,6.401,5.461,13.827c0,0,3.624,2.604,5.446,3.247
		c1.811,0.626,4.971,2.832,4.883,6.706v2.05H125.483z"/>
	<path fill="#FFFFFF" d="M235.648,66.924v-1.059h-0.137c0.012,0.354,0.012,0.691,0.012,1.059H235.648L235.648,66.924z"/>
	<path fill="#FFCB05" d="M180.525,40.765c4.094,0,7.753,1.299,10.129,3.35l0.178,0.199c1.437,1.399,2.188,1.31,3.966,1.31
		c1.985,0,3.598-1.647,3.598-3.685c0-2.027-0.04-3.677-2.831-6.266l-1.537-1.433l2.369-2.13
		c11.372,4.872,12.791,12.442,12.791,12.442h7.576c0-2.501-3.786-9.372-3.786-9.372c14.567,3.575,19.311,12.672,19.311,12.672
		c4.496-8.027,12.32-6.494,12.32-6.494l1.309-3.913c0,0-4.834-0.24-8.457,0.706c0,0,2.053-2.518-3.152-3.161
		c0,0,0.477-3.633-6.316-3.633c0,0,0.301-2.38-3.951-3.942c-4.267-1.584-5.685,0-5.685,0s-0.943-2.529-4.743-3.321
		c-3.779-0.791-5.063,0.792-5.063,0.792s-0.776-2.527-6.303-3.17c-5.535-0.613-6.478,1.12-6.478,1.12s-0.942-1.888-3.47-2.061
		c-2.531-0.164-3.64,1.283-3.64,1.283s-1.571-2.228-3.622-0.502c0,0-2.063,0.338-2.842-1.398c0,0,0.313-1.749,1.724-2.076
		c1.431-0.304,2.527-0.304,2.527-0.304s-0.148-2.68-4.087-3.634c0,0,1.483-2.419-1.828-4.946h-0.313
		c-3.311,2.527-1.825,4.946-1.825,4.946c-3.948,0.955-4.103,3.634-4.103,3.634s1.109,0,2.527,0.304
		c1.424,0.328,1.737,2.076,1.737,2.076c-0.792,1.736-2.843,1.398-2.843,1.398c-2.05-1.726-3.638,0.502-3.638,0.502
		s-1.106-1.447-3.624-1.283c-2.528,0.173-3.484,2.061-3.484,2.061s-0.941-1.733-6.468-1.12c-5.533,0.643-6.314,3.17-6.314,3.17
		s-1.27-1.584-5.057-0.792c-3.788,0.792-4.745,3.321-4.745,3.321s-1.424-1.584-5.688,0c-4.267,1.561-3.938,3.942-3.938,3.942
		c-6.795,0-6.326,3.633-6.326,3.633c-5.211,0.643-3.145,3.161-3.145,3.161c-3.64-0.945-8.458-0.706-8.458-0.706l1.296,3.913
		c0,0,7.828-1.534,12.331,6.494c0,0,4.743-9.098,19.298-12.672c0,0-3.786,6.87-3.786,9.372h7.575c0,0,1.424-7.571,12.795-12.442
		l2.364,2.13l-1.533,1.433c-2.782,2.589-2.833,4.239-2.833,6.266c0,2.036,1.612,3.685,3.599,3.685c1.771,0,2.527,0.089,3.977-1.31
		l0.164-0.199c2.375-2.051,6.038-3.35,10.141-3.35H180.525L180.525,40.765z"/>
	<path fill="#005A9C" d="M248.466,212.705c-1.209,0.328-2.568,0.689-3.498-0.102c-1.219-1.061-0.643-12.178-0.791-15.086
		c-0.037-0.832,0.328-1.373,0-3.031c0-0.043-6.996-1.938-11.688-6.531c-2.758,2.994-7.584,6.404-13.387,7.988
		c0.971,0.453,1.383,1.209,1.572,1.787v12.961c-0.189,0.891-0.536,1.281-1.343,1.785c1.747,0.463,6.439,1.711,11.248,4.617
		c0.463,0.277,4.314-2.906,6.176-3.387c0.98,1.398,4.176,4.66,7.309,3.271c1.07-0.461,3.285-2.967,4.404-3.807
		C248.439,213.16,248.466,212.756,248.466,212.705L248.466,212.705z M228.765,208.314c0,0-0.053-13.174,0-13.389
		c-0.053,0,6.93,3.713,6.93,3.713l0.053,12.393L228.765,208.314L228.765,208.314z"/>
	<path fill="#005A9C" d="M211.324,189.076c3.146,3.109,4.694,3.51,8.006,5.086c-0.82,3.598-7.613,4.594-11.928,2.467
		c-0.729-0.352-2.365,0.639-2.365,0.639l-0.038,14.635l2.062,0.023l-6.64,5.057l-5.853-5.057l2.365-0.023v-15.865
		c-1.243-1.611-3.22-1.182-5.463-0.252l6.241-5.916c2.293-1.961,5.826,4.002,7.439,3.838c0.666-0.086,3.698-2.906,4.388-3.508
		C209.916,189.867,211.211,188.977,211.324,189.076L211.324,189.076z"/>
	<path fill="#005A9C" d="M147.552,188.764c5.32-0.77,7.332,5.471,10.229,7.521c2.704-2.189,3.714-6.529,7.876-7.209
		c1.334-0.201,3.045,0.479,3.598,1.346c1.184,1.877-0.086,4.182-2.025,2.369c-0.413-0.377-0.791-0.705-1.572-0.445
		c-0.833,0.266-5.75,6.129-5.625,6.986l0.114,0.086c0.553,1.131,8.681,10.955,9.224,11.373c0.014,0.012,0.225,0.238,0.225,0.238
		c1.965,0.414,2.264-2.113,4.394-1.824c0.339,2.49-3.901,7.057-5.739,7.771c-7.636,3.023-10.368-7.447-14.396-10.014
		c-0.842,0.492-4.275,4.77-5.295,6.205c-0.842,1.182-1.524,2.557-2.819,3.244c-1.521,0.807-3.309-0.566-4.051-1.572
		c-0.83-1.143-2.791-6.051,1.132-4.051c0.655,0.354,1.7,0.998,2.593,0.678c0.657-0.223,6.292-6.654,6.405-7.205
		c0.051-0.266-0.015-0.568-0.113-0.779c-0.519-1.182-4.818-6.719-6.292-7.891l-0.114-0.084c-1.748-0.543-2.325,1.896-4.616,1.229
		c0.061-1.408,0.578-2.137,1.131-3.033c0.541-0.914,2.076-3.205,2.238-3.381C144.758,189.58,146.332,188.902,147.552,188.764
		L147.552,188.764z"/>
	<path fill="#005A9C" d="M185.119,182.219c0.176,0.164,0.488,0.117,0.553,0.342l-0.026,6.768h5.461c0,0.805,0,1.762,0,2.559
		c0,0-4.092-0.281-5.095,0.363l-0.628,0.303v16.58c0.01,0,1.456,1.145,1.986,1.209c0.154,0.01,0.303,0.035,0.442,0
		c0.816-0.139,3.948-2.266,4.402-0.553c0.152,0.605-0.136,1.08-0.351,1.357c-0.69,0.881-10.227,5.951-10.227,5.951
		s-5.626-4.746-6.077-5.172c-0.453-0.43,1.573-2.137,1.573-2.137c0.298-1.168,0-10.506,0-13.74c0-0.967,0.275-2.439,0-3.359
		c0.125-1.205-3.688-1.041-3.688-1.041l-0.014-2.32c0.607-0.373,2.668-0.135,3.489-0.252c0.099-0.428,0.076-1.873,0.324-2.361
		C177.495,186.234,184.127,182.686,185.119,182.219L185.119,182.219z"/>
	<path fill="#005A9C" d="M110.41,169.512c1.045-0.164,2.604,0.504,3.498,0.682c2.613,0.529,5.535,0.691,8.214,0.893
		c4.654,0.338,8.771-0.037,12.821-0.578c1.344-0.164,3.08-0.742,4.275-0.443c-0.643,1.334-1.395,2.09-2.25,3.16
		c-0.842,1.018-3.27,4.43-4.391,4.832c-0.567,0.186-1.136,0-1.688,0c-2.251,0.025-5.421,0.15-7.765,0.125
		c-1.871-0.041-4.15-0.453-6.077,0c-0.363,3.246-0.603,6.934,0.13,9.773c1.282-0.311,2.11-0.992,3.243-1.346
		c3.501-1.057,8.856,2.154,11.375,0.328c0.289-0.199,0.604-0.916,1.006-0.994c3.299-0.629-1.131,6.822-2.479,7.426
		c-2.251,1.006-5.913,0.666-8.557,0.213c-0.893-0.152-2.613-0.631-3.709-0.213c-2.076,0.766-1.233,7.197-1.233,9.998
		c0-0.027,0.009,0.271,0,0.355c-0.151,1.637-0.075,2.289-0.667,3.244c-0.389,0.609-0.526,1.07-0.791,1.787
		c1.897,0,3.309-0.516,4.958-0.654c3.055-0.277,5.783,0.619,8.201,1.031c1.813,0.264,4.944,0.666,6.303-0.377
		c0.972-0.717,1.547-3.42,2.593-3.924c0.363-0.164,1.02-0.104,1.334,0c0.592,0.176,1.105,0.678,1.031,1.469
		c-0.09,0.758-5.635,10.459-6.076,10.682c0,0.043,0,0.09,0,0.117c-0.086,0.025-0.341,0.1-0.341,0.1
		c-0.377,0.152-1.044,0.152-1.571,0.137c-5.032-0.375-10.318-1.934-15.201-2.373c-1.657-0.139-3.608-0.139-5.28,0
		c-1.3,0.1-6.117,1.672-6.975,1.113c-1.383-0.865,0.808-2.486,1.234-2.791c0.519-0.414,1.374-1.256,1.573-1.938
		c0.518-1.607,0.1-5.207,0-6.631c-0.414-6.25,0.05-13.232,0.115-19.789c0.01-1.5-0.289-3.309,0.224-4.605
		c0.558-1.447,2.503-2.303,3.374-3.619c-3.46-1.311-5.963,3.535-7.75,1.918c-0.632-0.537-0.691-1.029-0.114-1.682
		c1.901-2.189,4.125-4.139,6.076-6.307C109.352,170.318,109.918,169.588,110.41,169.512L110.41,169.512z"/>
	<path fill="#005A9C" d="M347.257,151.484c0.238,0.14,0.352,0.378,0.352,0.732c0,0.324-0.113,0.552-0.365,0.68
		c-0.139,0.061-0.352,0.087-0.631,0.087h-1.406v-1.587h1.43C346.916,151.396,347.105,151.419,347.257,151.484L347.257,151.484z
		 M343.986,150.347v5.955h1.221v-2.341h1.281c0.363,0,0.615,0.077,0.756,0.2c0.125,0.117,0.201,0.378,0.201,0.76v0.564
		c0,0.176,0.027,0.34,0.063,0.488c0.012,0.104,0.053,0.214,0.076,0.328h1.369v-0.148c-0.125-0.075-0.201-0.18-0.225-0.355
		c-0.023-0.061-0.039-0.263-0.039-0.539v-0.403c0-0.402-0.049-0.717-0.16-0.919c-0.129-0.202-0.316-0.376-0.594-0.466
		c0.338-0.11,0.578-0.313,0.717-0.575c0.137-0.29,0.213-0.554,0.213-0.855c0-0.213-0.049-0.44-0.125-0.617
		c-0.078-0.176-0.164-0.355-0.299-0.488c-0.152-0.18-0.342-0.344-0.568-0.445c-0.225-0.059-0.541-0.139-0.973-0.139h-2.914V150.347z
		"/>
	<path fill="#005A9C" d="M346.076,160.533c3.787,0,6.836-3.052,6.836-6.823c0-3.787-3.051-6.851-6.836-6.851
		c-3.773,0-6.836,3.063-6.836,6.851C339.24,157.483,342.302,160.533,346.076,160.533L346.076,160.533z M346.076,159.477
		c3.201,0,5.779-2.58,5.779-5.766c0-3.203-2.578-5.79-5.779-5.79c-3.189,0-5.775,2.587-5.775,5.79
		C340.3,156.897,342.886,159.477,346.076,159.477L346.076,159.477z"/>
</g>
</svg>
