<svg width="181" height="26" viewBox="0 0 181 26" fill="none" xmlns="http://www.w3.org/2000/svg">
<path d="M148.484 0.5H13.2089C6.30802 0.5 0.714111 6.09736 0.714111 12.9983C0.714111 19.8992 6.30802 25.4908 13.2089 25.4908H120.31L143.171 2.70098C144.583 1.29502 146.493 0.5 148.484 0.5Z" fill="#009639"/>
<path d="M148.484 0.499989C146.493 0.499989 144.582 1.29501 143.171 2.70096L120.31 25.4908L128.31 25.5C130.311 25.5069 132.232 24.7602 133.648 23.3473L148.119 8.87474L156.492 0.499989H148.484Z" fill="#FFCD00"/>
<path d="M156.491 0.499989V8.82987H148.162V17.1586H156.491V25.4816H164.82V17.1586H173.149V8.82987H164.82V0.499989H156.491Z" fill="#009639"/>
<path d="M148.162 17.1586H156.49V25.4804L128.477 25.4988C130.397 25.4528 132.24 24.7119 133.605 23.3508L148.12 8.87014L148.161 8.82872V17.1574L148.162 17.1586ZM148.163 8.82987H156.491V0.499989L148.163 8.82872V8.82987ZM168.11 0.499989H164.821V8.82987H173.151V17.1597H164.821V25.4816H168.11C175.009 25.4816 180.6 19.89 180.6 12.9914C180.6 6.09274 175.008 0.499989 168.11 0.499989Z" fill="white"/>
<path d="M124.499 10.1691C124.557 10.0851 124.585 9.99075 124.585 9.88145C124.585 9.70081 124.532 9.5662 124.428 9.47876C124.322 9.39017 124.156 9.34645 123.931 9.34645H123.399V11.1597H123.701V10.4383H123.976L124.399 11.1597H124.742L124.256 10.3555C124.36 10.3152 124.442 10.2531 124.5 10.1691H124.499ZM123.92 10.1875H123.699V9.60417H123.916C124.042 9.60417 124.134 9.62603 124.193 9.6709C124.252 9.71462 124.28 9.7871 124.28 9.8895C124.28 9.97579 124.248 10.0483 124.182 10.1047C124.116 10.161 124.029 10.1886 123.919 10.1886L123.92 10.1875ZM125.293 9.48451C125.156 9.2475 124.967 9.05997 124.729 8.9242C124.491 8.78844 124.236 8.72056 123.964 8.72056C123.693 8.72056 123.433 8.78959 123.193 8.9265C122.955 9.06342 122.768 9.2498 122.632 9.48796C122.496 9.72613 122.427 9.98039 122.427 10.2519C122.427 10.5234 122.494 10.772 122.626 11.0078C122.758 11.2425 122.945 11.4301 123.183 11.5704C123.42 11.712 123.68 11.7821 123.963 11.7821C124.246 11.7821 124.506 11.7108 124.744 11.5704C124.982 11.4289 125.168 11.2402 125.299 11.0067C125.431 10.772 125.497 10.5211 125.497 10.2531C125.497 9.985 125.426 9.72267 125.291 9.48566L125.293 9.48451ZM125.104 10.9123C124.985 11.1137 124.825 11.2736 124.622 11.391C124.42 11.5095 124.2 11.5681 123.964 11.5681C123.728 11.5681 123.51 11.5106 123.305 11.391C123.1 11.2736 122.939 11.1137 122.819 10.9089C122.701 10.7041 122.642 10.4855 122.642 10.2496C122.642 10.0138 122.702 9.79056 122.822 9.58806C122.939 9.38672 123.101 9.22679 123.304 9.10944C123.506 8.99093 123.726 8.93226 123.963 8.93226C124.2 8.93226 124.422 8.99208 124.626 9.11059C124.826 9.22909 124.988 9.38902 125.105 9.59266C125.224 9.79516 125.283 10.0138 125.283 10.2496C125.283 10.4855 125.223 10.7098 125.103 10.9112L125.104 10.9123ZM20.3802 15.2878L23.0598 17.8604C21.6768 19.6978 19.1042 21.1889 16.0127 21.1889C11.4083 21.1889 7.79907 17.903 7.79907 13.0178C7.79907 8.13263 11.5176 4.69598 16.0346 4.69598C18.9742 4.69598 21.4605 5.99264 22.8861 7.8519L20.3135 10.5534C19.2757 9.42929 17.9146 8.56523 16.2935 8.56523C13.8728 8.56523 11.9698 10.4245 11.9698 12.9971C11.9698 15.5697 13.8497 17.3415 16.2716 17.3415C17.872 17.3415 19.3412 16.52 20.379 15.2878H20.3802ZM40.6354 9.01855H44.4609V15.7411C44.4609 19.3078 42.2565 21.2533 38.7117 21.2533C35.1669 21.2533 32.9832 19.3089 32.9832 15.7411V9.01855H36.8098V15.7848C36.8098 16.9308 37.5232 17.773 38.7117 17.773C39.9002 17.773 40.6354 16.9296 40.6354 15.7848V9.01855ZM52.7586 17.8155H56.3931V20.9508H45.715V18.2654L51.0477 12.1595H45.9531V9.0197H56.1561V11.7488L50.3643 18.5162H50.8533L51.3722 18.2033C51.791 17.9502 52.2707 17.8167 52.7597 17.8167L52.7586 17.8155ZM104.24 9.94818C103.483 9.23485 102.425 8.71596 101.02 8.71596C97.7342 8.71596 95.1834 11.353 95.1834 14.9841C95.1834 18.6152 97.7123 21.2522 101.02 21.2522C101.915 21.2522 102.588 21.0497 103.151 20.7206C103.715 20.3904 104.064 19.9026 104.423 19.3573L104.724 18.8844H105.092L104.901 19.6035C104.72 20.2834 105.233 20.9508 105.936 20.9508H108.067V4.45782H104.242V9.94818H104.24ZM101.668 17.773C100.089 17.773 98.9445 16.5189 98.9445 14.9634C98.9445 13.4078 100.09 12.1963 101.668 12.1963C103.245 12.1963 104.391 13.4504 104.391 14.9634C104.391 16.4763 103.289 17.773 101.668 17.773ZM79.2382 8.78729C75.4207 8.78729 72.8757 11.483 72.8757 15.0428C72.8757 18.2999 75.2596 21.2545 79.4545 21.2545C81.698 21.2545 83.5089 20.4779 84.717 19.615L83.2063 17.3013C82.279 17.926 81.0675 18.354 79.627 18.354C78.0531 18.354 76.539 17.3944 76.1501 16.2727H84.5295C84.931 16.2727 85.267 15.962 85.3038 15.5616C85.3302 15.2775 85.3429 15.0025 85.3429 14.7413C85.3429 10.9664 82.669 8.78844 79.2393 8.78844L79.2382 8.78729ZM81.6209 13.7449H78.0796C77.6734 13.7449 77.273 13.8508 76.9198 14.051L76.4193 14.349H76.1777C76.2801 13.9636 76.4481 13.5102 76.7323 13.0949C77.3363 12.2136 78.2751 11.659 79.2566 11.659C80.7039 11.659 81.7106 12.469 82.0788 13.7449H81.6221H81.6209ZM115.622 8.78729C111.804 8.78729 109.259 11.483 109.259 15.0428C109.259 18.2999 111.643 21.2545 115.838 21.2545C118.081 21.2545 119.892 20.4779 121.1 19.615L119.59 17.3013C118.662 17.926 117.451 18.354 116.01 18.354C114.436 18.354 112.922 17.3944 112.534 16.2727H120.913C121.314 16.2727 121.65 15.962 121.687 15.5616C121.714 15.2775 121.726 15.0025 121.726 14.7413C121.726 10.9664 119.052 8.78844 115.623 8.78844L115.622 8.78729ZM118.004 13.7449H114.463C114.057 13.7449 113.656 13.8508 113.303 14.051L112.803 14.349H112.561C112.664 13.9636 112.831 13.5102 113.116 13.0949C113.72 12.2136 114.659 11.659 115.64 11.659C117.087 11.659 118.094 12.469 118.462 13.7449H118.005H118.004ZM74.9064 4.97671L68.552 20.9508H64.9416L58.4997 4.97671H63.1905L65.694 12.1687C66.0749 13.2122 66.2578 14.395 66.1393 15.1624H66.6317L70.2594 4.97556H74.9064V4.97671ZM31.9362 9.01855V12.6197C31.4529 12.469 30.9548 12.3689 30.475 12.3689C28.9827 12.3689 27.838 13.2341 27.838 15.8056V20.9496H24.0331V9.0174H26.0983C26.8807 9.0174 27.4502 9.76064 27.2466 10.5165L27.0924 11.0872H27.4836L27.8276 10.482C28.9885 8.57444 31.201 8.5986 31.9373 9.0174L31.9362 9.01855ZM94.6059 9.01855V12.6197C94.1226 12.469 93.6245 12.3689 93.1447 12.3689C91.6536 12.3689 90.5077 13.2341 90.5077 15.8056V20.9496H86.7028V9.0174H88.768C89.5504 9.0174 90.1199 9.76064 89.9163 10.5165L89.7621 11.0872H90.1533L90.4961 10.482C91.657 8.57444 93.8695 8.5986 94.6059 9.0174V9.01855Z" fill="white"/>
</svg>
