<?xml version="1.0" encoding="utf-8"?>
<!-- Generator: Adobe Illustrator 24.3.0, SVG Export Plug-In . SVG Version: 6.00 Build 0)  -->
<svg version="1.1" id="Capa_1" xmlns="http://www.w3.org/2000/svg" xmlns:xlink="http://www.w3.org/1999/xlink" x="0px" y="0px"
	 viewBox="0 0 101.3 176.4" style="enable-background:new 0 0 101.3 176.4;" xml:space="preserve">
<style type="text/css">
	.st0{fill:#212121;}
</style>
<g>
	<path class="st0" d="M77.7,133l-1,6.4l-0.3,8.4l0.5,7.1l6.4,12.8l1,0.5l0.5,1l1.7,1v0.4c0,0-0.6,0.2-2-0.3s-1.9-1.5-1.9-1.5
		l-8.8-11.1l-2.5-3.3l-1-2.7l-1.6-8.3l-0.2-2.9l-3.7,8.2l-2.5,8.3l-1.2,4.1l-0.6,6.4l0.2,1.7l-4.5,0.4c0,0-0.3-0.3,0.6-0.8
		s1.1-0.2,1.1-0.2l1.1-0.8l-0.2-8.1l1.7-25.4l2.8-8.3l0.8-2.9l3-6.8l0.3-2.7l-1.4-3.3l-4.5,0.5c0,0-1.3-0.3-1.2-1.4s0.4-1.7,0.4-1.7
		l8.4-2l-1.5-1.3l-6.1-5.7l-3.8-5l0.1-0.3l-0.4-0.5l0-0.9l-0.6-0.3l-0.1-0.6l1.3-1.8l0.4-2.4l0.2,2.2l-0.4,1.3V91l0.8,1l0.1-0.1
		l0.8,1l13.9,9.8l0.1-0.7l-0.6-1.5l0.4-0.4l-0.1-2l1.2-1.2c0,0-0.6-0.6-0.4-0.6c0.6,0,1.4-0.6,1.4-0.6l0.9,0.1l0.9,0.6l1.8,0.1
		l0.8,1l1,0.4l-0.9,0.9l-0.5,1.3l-0.6,0.1c0,0-0.5,1.1-0.9,1.1c-0.3,0-0.5,0.2-0.5,0.2l-0.8,1.6l0.4,0.5l1.8,0.3l2.1,1.1l0.9,2.7
		l-2.6,13.8L77.7,133z"/>
	<polygon class="st0" points="85.1,14.6 92.7,14.6 87.1,19.4 89,32.8 80.5,20.8 72.3,30.4 75.7,19.8 68.4,16.4 77.1,16.1 81,7.4 	
		"/>
	<path class="st0" d="M50.6,58.2v1.5l1.3,2l2.6,6.1l4,19.1l-0.4,2.4l-1.3,1.8l-10.6,14.2l3.1,2.8l-0.1,0.3l-5-1.7v-0.9l0.3-0.7
		L44,98.6l-2.4-22.3l0.1-8.5l0.6-3.5l2.1-4v-0.7l-2.8-2l-6.4,9.7l-2.1,4.4L33,72.5l-0.2,0.7l0.4,0.7l-0.1,0.7L32.3,75l-0.6,0.4
		l0.2,0.7L31,75.7l0.6-3.2l-0.1-1L34,64l3.5-6.9l6.4-8.6l-0.5-0.7l0.3-0.3c0,0-0.1-0.8-0.5-0.4c-0.3,0.4-0.4,0.2-1.1,0.4
		c-0.7,0.2-0.9-0.4-0.9-0.4s-0.1,0.2-0.6,0.1c-0.5-0.2-0.2-0.5-0.2-0.5s-0.3,0-0.5,0s-0.4-1.5-0.4-1.5s-1.1,0.1-1.2-0.4
		c-0.1-0.5,1.1-0.9,1.5-1.2s0.5-0.7,1.1-1.3s1.1-0.2,1.1-0.2l1.1-0.5l0.6-0.1L45,41l0.2,0.5l1,0.6l0.2,0.7l0.4,0.2v0.2l-0.3,0.4
		l0.1,1.2l2.5-3.1l7.6-9l2.5-2.6l0.5-0.5l1.4-2l1-2l2-1.4l1.1-0.3L65,24.4l0.5-0.1L64.9,26l0.9-0.5L64,27.9l-2.8,2.5l-0.5,1.8
		L57.8,37l-4.4,6.4l-0.6,1.9l-1.4,9.9l-0.3,1.2L50.6,58.2z M49.2,86.2l-0.8,6.6L48,94.7l3.4-5.6v-0.9l-1.6-3.7L49.2,86.2z"/>
	<path class="st0" d="M44.2,110.6l6.7-2.4l3.5-0.5l0.4-1.6l-0.9-1.8l0.6-1.1l-0.3-0.7l2.1-1.8c0,0,0.2-1,1.6-0.6
		c1.3,0.4,1.7,1.5,1.7,1.5l0.6-2.1L59,94.7l2.8,3.7l0.3,4l-1,3.1c0,0,0.4-0.2,0.4,0.9s-1.3,2.4,0.1,3.7s2.6,1.8,2.6,1.8
		s-0.6,1.3-2.4,2.1c-1.8,0.9-5.4,1-5.4,1l-0.6,1.7L58,127l5.9,16.5l-1.6,2.5l5.5,11.8l2.1,6.7l2.2,2.9l1.1,1.1c0,0,2.4,0.6,2.2,0.7
		c-0.2,0.1-3.2-0.1-3.2-0.1l-1-0.7l0.4,0.9l-0.5,0.2l-1-1.6l-0.2-1.1l-2.7-4.4l-3.7-5l-4.3-6.7l-1.3-2.6l-1.2,0.4l-12,19.7l2.3,2.4
		h-2.3l-0.6-1.1l-0.2,0.7l-0.5,0.1l-0.4-2l7.2-16.5l-0.6-3.7l-3.3-13.7l-0.6-5.7c0,0-0.3-7.7,1.3-10.2s2.7-3.8,2.7-3.8l-0.2-2.4
		l-1.8,0.4L44.2,110.6z"/>
	<path class="st0" d="M31.7,74.5l1.4,0.1l0.7,1.3l-0.4,0.3c0,0-0.1,1.3-0.6,1.8s0.1,1.6,0.1,1.6l0.2,1.1l-0.3,9.1l2.6,9.9
		c0,0,0.4-0.6,0.7-0.9s0.3,0.2,0.6-0.2S36.5,98.1,37,98c0.5,0,0.5,0.4,1.2-0.3c0.7-0.7,1.1,0.3,1.1,0.3l0.5,0.6l0.2,0.3l2,0.6
		l-0.2,0.7l1,1c0,0,0.2,0.5-0.5,0.8s-0.5,0.2-0.9,0.6s-0.6,0.6-0.6,0.6l-0.4,1l1.3,0.7l-0.5,0.9l1.6,0.2l6.7,2.3l3.7-0.4l-2.1,0.5
		l-2.3,1l-5.2,2.3l-2.4,4.6l-1.6,2.3l-0.3,8.1l-2.4,11.4l-1.6,6.6l0.8,12.6l0.2,2.4l1.2,5.8l0.4,0.4l-0.1,0.4l-2.3,2l-1.3-0.2
		l0.9-0.9l1.2-1.6l-0.7-0.8l-4.7-11.9l-3.1-9.6l0.3-6.2l-3.6,4.8L20.1,153l-0.7,2.1l-2.2,5.6v1.5l-2.5-0.1l-1.7-0.4v-0.5l2.8-0.5
		V155l0.7-8.3l1.6-9.9L20,131l3.7-5.7l4.5-6.1l4.5-3.5l0.2-0.5l-0.1-0.8l-0.3-8.4l-2-10.7l-0.4-6.7l0.4-7.4l0.8-1.1l0.2-1l-0.5-3
		L31.7,74.5z"/>
</g>
</svg>
