<svg width="607" height="113" viewBox="0 0 607 113" fill="none" xmlns="http://www.w3.org/2000/svg">
<path d="M92.99 70.62C92.99 49.25 108.66 33.58 130.88 33.58C153.1 33.58 168.77 49.25 168.77 70.62C168.77 91.99 153.1 107.66 130.88 107.66C108.66 107.66 92.99 91.99 92.99 70.62ZM151.54 70.62C151.54 58.23 143.28 49.39 130.88 49.39C118.48 49.39 110.08 58.22 110.08 70.62C110.08 83.02 118.49 91.85 130.88 91.85C143.27 91.85 151.54 83.02 151.54 70.62Z" fill="white"/>
<path d="M179.88 69.19C179.88 45.68 193.84 33.58 214.64 33.58C235.44 33.58 249.4 45.55 249.4 69.19V105.8H232.45V69.19C232.45 55.8 225.33 49.39 214.64 49.39C203.95 49.39 196.83 55.8 196.83 69.19V105.8H179.88V69.19Z" fill="white"/>
<path d="M260.51 70.62C260.51 49.25 276.18 33.58 298.4 33.58C320.62 33.58 336.01 49.25 336.01 70.62V76.6H278.31C280.59 86.86 288.42 92.27 298.4 92.27C305.95 92.27 311.51 90.13 315.07 85.57H333.16C327.89 98.96 315.07 107.65 298.4 107.65C276.18 107.65 260.51 91.98 260.51 70.61V70.62ZM318.06 63.07C315.35 53.67 307.66 48.97 298.4 48.97C289.14 48.97 281.45 53.81 278.74 63.07H318.06Z" fill="white"/>
<path d="M349.54 4.66003H366.49V105.8H349.54V4.66003Z" fill="white"/>
<path d="M380.16 85.01H397.26C397.4 89.71 401.53 92.85 409.8 92.85C418.49 92.85 422.19 89.29 422.19 85.01C422.19 79.6 415.92 78.88 408.37 77.89C397.54 76.46 381.59 74.61 381.59 57.38C381.59 42.99 392.56 33.59 409.51 33.59C426.46 33.59 437.29 43.28 437.72 55.67H420.91C420.48 51.4 416.49 48.41 409.8 48.41C402.39 48.41 398.69 51.97 398.69 56.1C398.69 61.51 405.1 62.37 412.65 63.36C422.05 64.64 439.29 66.49 439.29 84.02C439.29 98.27 427.75 107.67 409.8 107.67C391.85 107.67 380.6 98.12 380.17 85.02L380.16 85.01Z" fill="white"/>
<path d="M450.53 72.0401V35.4301H467.48V72.0401C467.48 85.4301 474.6 91.84 485.29 91.84C495.98 91.84 503.1 85.4301 503.1 72.0401V35.4301H520.05V72.0401C520.05 95.5501 506.09 107.65 485.29 107.65C464.49 107.65 450.53 95.6801 450.53 72.0401Z" fill="white"/>
<path d="M534 64.92C534 43.69 546.54 33.58 564.91 33.58C583.28 33.58 595.68 43.7 595.68 65.21V65.64H578.87V64.93C578.87 53.53 573.17 49.4 564.91 49.4C556.65 49.4 550.95 53.53 550.95 64.93V105.81H534V64.93V64.92Z" fill="white"/>
<path d="M67.4001 80.19C64.2001 87.24 57.2801 91.72 48.3701 91.72C35.9401 91.72 27.5101 82.86 27.5101 70.43C27.5101 58 35.9401 49.15 48.3701 49.15C57.1501 49.15 64.0101 53.5 67.2701 60.37H84.6701C80.8301 44.31 67.0501 33.29 48.3701 33.29C26.0901 33.29 10.3701 49 10.3701 70.43C10.3701 91.86 26.0801 107.57 48.3701 107.57C67.1701 107.57 81.0001 96.41 84.7401 80.18H67.4101L67.4001 80.19Z" fill="white"/>
</svg>
